<?xml version="1.0" encoding="UTF-8"?>
<svg id="Layer_1" data-name="Layer 1" xmlns="http://www.w3.org/2000/svg" viewBox="0 0 630.6848 425.6786" fill="currentColor">
  <path d="M0,.0001l210.5601,364.71,17.55-30.39-105.28-182.36h34.5594l.103.1785v.01l157.9199,273.53,69.9575-121.1675,34.7546,60.1989,140.37-243.14h-69.509l34.9869-60.6014h-210.5601l17.55,30.39h140.3699l-17.4369,30.2114h-141.0509l-52.6398-91.1799h.9952s314.8446-.0001,314.8446-.0001l-35.09,60.79h35.09v-.01L630.6848,0H0ZM420.1246,303.92l-17.2067-29.8124.2245-.389,70.1899-121.57v-.01l.1031-.1786h34.4191l-87.73,151.96ZM297.2946,151.96h141.0568l-.1088.1886-52.6401,91.17v.01l-.2296.3975-.3383-.5861-35.0999-60.78v-.01h-35.0901l52.64,91.18.3384.5862-52.4105,90.7725-122.8301-212.74-.1088-.1885h70.7263l-17.5498-30.39h-70.7207l-17.4369-30.2115h70.1899l-17.55-30.39h-105.28l34.9871,60.6015h-34.5594L52.6401,30.3901h174.4746l70.1798,121.5699Z"/>
</svg>