<?xml version="1.0" encoding="UTF-8"?>
<svg id="Layer_1" data-name="Layer 1" xmlns="http://www.w3.org/2000/svg" viewBox="0 0 2737 721" fill="currentColor">
  <g>
    <path d="M840.1133,353.4877v-174.0947h164.1205v18.1349h-142.3586v58.0316h135.8981v18.1349h-135.8981v79.7934h-21.7618Z"/>
    <path d="M1035.9698,353.4877v-174.0947h21.7618v155.9598h137.8249v18.1349h-159.5868Z"/>
    <path d="M1224.5723,353.4877v-174.0947h170.9211v18.1349h-149.1592v58.0316h142.9254v18.1349h-142.9254v61.6585h152.3328v18.1349h-174.0947Z"/>
    <path d="M1427.6827,353.4877v-174.0947h170.9211v18.1349h-149.1592v58.0316h142.9254v18.1349h-142.9254v61.6585h152.3328v18.1349h-174.0947Z"/>
    <path d="M1712.7329,353.4877v-155.9598h-87.0473v-18.1349h195.8565v18.1349h-87.0473v155.9598h-21.7618Z"/>
    <path d="M1999.7171,353.4877l-93.8479-174.0947h24.9354l83.4204,158.68,83.4204-158.68h24.5954l-93.5079,174.0947h-29.0158Z"/>
    <path d="M2091.542,353.4877l101.5552-174.0947h29.0158l101.5552,174.0947h-25.3888l-21.7618-39.8967h-137.8249l-21.7618,39.8967h-25.3888ZM2149.5735,295.4561h116.0631l-58.0316-101.5552-58.0316,101.5552Z"/>
    <path d="M2352.684,353.4877v-174.0947h22.6686l174.8881,147.2324h.2267v-147.2324h21.7618v174.0947h-22.6686l-174.8881-148.4792h-.2267v148.4792h-21.7618Z"/>
    <path d="M968.1152,505.6395c0-4.4833-.3526-8.0096-1.0579-10.5787s-2.292-4.4707-4.7604-5.7049-6.2968-2.0402-11.4854-2.418-12.2914-.6423-21.3085-.7934l-42.0124-.6045c-10.3772-.1511-18.7142-.7808-25.011-1.889-6.2968-1.1082-11.0572-2.8588-14.2812-5.2516s-5.3775-5.6042-6.4605-9.6341-1.6246-9.0674-1.6246-15.1124c0-6.5991.743-12.0395,2.2291-16.3214,1.4861-4.2818,4.1811-7.6318,8.0851-10.0497s9.4326-4.1181,16.5858-5.1004,16.3969-1.4735,27.7312-1.4735h32.3405c10.2764,0,18.8401.3274,25.6911.9823s12.2914,2.1661,16.3214,4.5337,6.9139,6.045,8.6518,11.032,2.6069,11.838,2.6069,20.5528h-14.5079c0-6.7502-.6423-11.8506-1.9268-15.3013s-3.4003-5.8057-6.3472-7.065-6.9139-1.9394-11.901-2.0402-11.1832-.1511-18.5882-.1511h-31.5849c-9.0171,0-16.2332.1763-21.6485.5289s-9.5082,1.1586-12.2788,2.418-4.6219,3.2743-5.5538,6.045c-.9319,2.7706-1.3979,6.5739-1.3979,11.4098,0,4.0803.3274,7.3547.9823,9.823s2.1283,4.3448,4.4204,5.6294,5.8309,2.1661,10.6164,2.6447,11.3091.7682,19.5705.869l45.0349.6045c10.5787.1511,19.029.7682,25.351,1.8513,6.322,1.0831,11.0572,2.8336,14.2056,5.2516s5.239,5.6797,6.2716,9.7853,1.549,9.2815,1.549,15.528c0,6.8006-.6423,12.5055-1.9268,17.1148-1.2846,4.6093-3.7655,8.2992-7.4428,11.0698s-8.9919,4.7604-15.9436,5.9694c-6.9517,1.209-16.0947,1.8135-27.429,1.8135h-35.363c-10.3268,0-18.9912-.4534-25.9933-1.3601-7.0021-.9067-12.5811-2.7328-16.737-5.4782s-7.1406-6.8384-8.9541-12.2788c-1.8135-5.4405-2.7202-12.6944-2.7202-21.7618h14.5079c0,7.1028.5793,12.5937,1.7379,16.4725,1.1586,3.8788,3.1862,6.662,6.0827,8.3496s6.9517,2.695,12.1655,3.0225,11.8506.4912,19.9106.4912h34.6074c9.0171,0,16.1451-.2897,21.384-.869s9.1178-1.6875,11.6365-3.3247,4.1433-3.9922,4.8737-7.065c.7304-3.0729,1.0956-7.128,1.0956-12.1655Z"/>
    <path d="M1169.0486,539.189v-48.3596l-65.2855-67.7035h19.3439l53.1956,56.8226,53.1956-56.8226h19.3439l-65.2855,67.7035v48.3596h-14.5079Z"/>
    <path d="M1497.9839,505.6395c0-4.4833-.3526-8.0096-1.0579-10.5787s-2.292-4.4707-4.7604-5.7049-6.2968-2.0402-11.4854-2.418-12.2914-.6423-21.3085-.7934l-42.0124-.6045c-10.3772-.1511-18.7142-.7808-25.011-1.889-6.2968-1.1082-11.0572-2.8588-14.2812-5.2516s-5.3775-5.6042-6.4605-9.6341-1.6246-9.0674-1.6246-15.1124c0-6.5991.743-12.0395,2.2291-16.3214,1.4861-4.2818,4.1811-7.6318,8.0851-10.0497s9.4326-4.1181,16.5858-5.1004,16.3969-1.4735,27.7312-1.4735h32.3405c10.2764,0,18.8401.3274,25.6911.9823s12.2914,2.1661,16.3214,4.5337,6.9139,6.045,8.6518,11.032c1.7379,4.9871,2.6069,11.838,2.6069,20.5528h-14.5079c0-6.7502-.6423-11.8506-1.9268-15.3013-1.2846-3.4507-3.4003-5.8057-6.3472-7.065s-6.9139-1.9394-11.901-2.0402-11.1832-.1511-18.5882-.1511h-31.5849c-9.0171,0-16.2332.1763-21.6485.5289s-9.5082,1.1586-12.2788,2.418-4.6219,3.2743-5.5538,6.045-1.3979,6.5739-1.3979,11.4098c0,4.0803.3274,7.3547.9823,9.823s2.1283,4.3448,4.4204,5.6294,5.8309,2.1661,10.6164,2.6447,11.3091.7682,19.5705.869l45.0349.6045c10.5787.1511,19.029.7682,25.351,1.8513s11.0572,2.8336,14.2056,5.2516,5.239,5.6797,6.2716,9.7853,1.549,9.2815,1.549,15.528c0,6.8006-.6423,12.5055-1.9268,17.1148s-3.7655,8.2992-7.4428,11.0698c-3.6773,2.7706-8.9919,4.7604-15.9436,5.9694-6.9517,1.209-16.0947,1.8135-27.429,1.8135h-35.363c-10.3268,0-18.9912-.4534-25.9933-1.3601s-12.5811-2.7328-16.737-5.4782-7.1406-6.8384-8.9541-12.2788c-1.8135-5.4405-2.7202-12.6944-2.7202-21.7618h14.5079c0,7.1028.5793,12.5937,1.7379,16.4725,1.1586,3.8788,3.1862,6.662,6.0827,8.3496,2.8965,1.6875,6.9517,2.695,12.1655,3.0225s11.8506.4912,19.9106.4912h34.6074c9.0171,0,16.1451-.2897,21.384-.869,5.239-.5793,9.1178-1.6875,11.6365-3.3247,2.5187-1.6372,4.1433-3.9922,4.8737-7.065.7304-3.0729,1.0956-7.128,1.0956-12.1655Z"/>
    <path d="M1698.9173,539.189v-103.9732h-58.0316v-12.0899h130.571v12.0899h-58.0316v103.9732h-14.5079Z"/>
    <path d="M1913.074,539.189v-116.0631h113.9474v12.0899h-99.4395v38.6877h95.2836v12.0899h-95.2836v41.1057h101.5552v12.0899h-116.0631Z"/>
    <path d="M2144.7611,539.189v-116.0631h21.6107l70.197,94.6791,69.1392-94.6791h21.6107v116.0631h-14.5079v-102.9153l-69.2903,95.2836h-13.1478l-71.1038-95.2836v102.9153h-14.5079Z"/>
    <path d="M2557.7212,505.6395c0-4.4833-.3526-8.0096-1.0579-10.5787s-2.292-4.4707-4.7604-5.7049-6.2968-2.0402-11.4854-2.418-12.2914-.6423-21.3085-.7934l-42.0124-.6045c-10.3772-.1511-18.7142-.7808-25.011-1.889-6.2968-1.1082-11.0572-2.8588-14.2812-5.2516s-5.3775-5.6042-6.4605-9.6341-1.6246-9.0674-1.6246-15.1124c0-6.5991.743-12.0395,2.2291-16.3214,1.4861-4.2818,4.1811-7.6318,8.0851-10.0497s9.4326-4.1181,16.5858-5.1004,16.3969-1.4735,27.7312-1.4735h32.3405c10.2764,0,18.8401.3274,25.6911.9823s12.2914,2.1661,16.3214,4.5337,6.9139,6.045,8.6518,11.032,2.6069,11.838,2.6069,20.5528h-14.5079c0-6.7502-.6423-11.8506-1.9268-15.3013-1.2846-3.4507-3.4003-5.8057-6.3472-7.065s-6.9139-1.9394-11.901-2.0402-11.1832-.1511-18.5882-.1511h-31.5849c-9.0171,0-16.2332.1763-21.6485.5289s-9.5082,1.1586-12.2788,2.418-4.6219,3.2743-5.5538,6.045-1.3979,6.5739-1.3979,11.4098c0,4.0803.3274,7.3547.9823,9.823s2.1283,4.3448,4.4204,5.6294,5.8309,2.1661,10.6164,2.6447c4.7856.4786,11.3091.7682,19.5705.869l45.0349.6045c10.5787.1511,19.029.7682,25.351,1.8513,6.322,1.0831,11.0572,2.8336,14.2056,5.2516s5.239,5.6797,6.2716,9.7853c1.0327,4.1055,1.549,9.2815,1.549,15.528,0,6.8006-.6423,12.5055-1.9268,17.1148-1.2846,4.6093-3.7655,8.2992-7.4428,11.0698-3.6773,2.7706-8.9919,4.7604-15.9436,5.9694s-16.0947,1.8135-27.429,1.8135h-35.363c-10.3268,0-18.9912-.4534-25.9933-1.3601-7.0021-.9067-12.5811-2.7328-16.737-5.4782s-7.1406-6.8384-8.9541-12.2788c-1.8135-5.4405-2.7202-12.6944-2.7202-21.7618h14.5079c0,7.1028.5793,12.5937,1.7379,16.4725s3.1862,6.662,6.0827,8.3496c2.8965,1.6875,6.9517,2.695,12.1655,3.0225s11.8506.4912,19.9106.4912h34.6074c9.0171,0,16.1451-.2897,21.384-.869s9.1178-1.6875,11.6365-3.3247c2.5187-1.6372,4.1433-3.9922,4.8737-7.065.7304-3.0729,1.0956-7.128,1.0956-12.1655Z"/>
  </g>
  <path d="M45.1576,147.6608l210.5601,364.71,17.55-30.39-105.28-182.36h34.5594l.103.1785v.01l157.9199,273.53,69.9575-121.1675,34.7546,60.1989,140.37-243.14h-69.509l34.9869-60.6014h-210.5601l17.55,30.39h140.3699l-17.4369,30.2114h-141.0509l-52.6398-91.1799h.9952s314.8446-.0001,314.8446-.0001l-35.09,60.79h35.09v-.01l52.6401-91.17H45.1576ZM465.2822,451.5807l-17.2067-29.8124.2245-.389,70.1899-121.57v-.01l.1031-.1786h34.4191l-87.73,151.96ZM342.4521,299.6207h141.0568l-.1088.1886-52.6401,91.17v.01l-.2296.3975-.3383-.5861-35.0999-60.78v-.01h-35.0901l52.64,91.18.3384.5862-52.4105,90.7725-122.8301-212.74-.1088-.1885h70.7263l-17.5498-30.39h-70.7207l-17.4369-30.2115h70.1899l-17.55-30.39h-105.28l34.9871,60.6015h-34.5594l-52.6399-91.18h174.4746l70.1798,121.5699Z"/>
</svg>