<?xml version="1.0" encoding="UTF-8"?>
<svg xmlns="http://www.w3.org/2000/svg" version="1.1" viewBox="0 0 1882.9486 663.5899">
  <defs>
    <style>
      .st0 {
        fill: none;
        stroke: currentColor;
        stroke-miterlimit: 10;
      }

      .st1 {
        fill: currentColor;
      }

      .st2 {
        display: none;
      }
    </style>
  </defs>
  <g id="Layer_2" class="st2">
    <rect class="st0" x="720" y="-28.205" width="2016" height="720"/>
    <rect class="st0" x="675.3424" y="-28.205" width="2060.6576" height="720"/>
    <rect class="st0" y="-28.205" width="720" height="720"/>
    <rect class="st0" y="-28.205" width="149.4399" height="720"/>
    <rect class="st0" x="570.5601" y="-28.205" width="149.4399" height="720"/>
    <rect class="st0" x="1733.5087" y="-28.205" width="149.4399" height="720"/>
    <rect class="st0" x="866.7543" y="-866.7543" width="149.4399" height="1882.9486" transform="translate(1016.1943 -866.7543) rotate(90)"/>
    <rect class="st0" x="866.7543" y="-352.6044" width="149.4399" height="1882.9486" transform="translate(1530.3442 -352.6044) rotate(90)"/>
    <rect class="st0" y="210.2299" width="1882.9486" height="243.13"/>
  </g>
  <g id="Layer_1">
    <g class="st2">
      <path class="st1" d="M839.6133,324.7826v-174.0947h164.1205v18.1349h-142.3586v58.0316h135.8981v18.1349h-135.8981v79.7934h-21.7618Z"/>
      <path class="st1" d="M1035.4698,324.7826v-174.0947h21.7618v155.9598h137.8249v18.1349h-159.5868Z"/>
      <path class="st1" d="M1224.0723,324.7826v-174.0947h170.9211v18.1349h-149.1592v58.0316h142.9254v18.1349h-142.9254v61.6585h152.3328v18.1349h-174.0947Z"/>
      <path class="st1" d="M1427.1827,324.7826v-174.0947h170.9211v18.1349h-149.1592v58.0316h142.9254v18.1349h-142.9254v61.6585h152.3328v18.1349h-174.0947Z"/>
      <path class="st1" d="M1712.2329,324.7826v-155.9598h-87.0473v-18.1349h195.8565v18.1349h-87.0473v155.9598h-21.7618Z"/>
      <path class="st1" d="M1999.2171,324.7826l-93.8479-174.0947h24.9354l83.4204,158.68,83.4204-158.68h24.5954l-93.5079,174.0947h-29.0158Z"/>
      <path class="st1" d="M2091.042,324.7826l101.5552-174.0947h29.0158l101.5552,174.0947h-25.3888l-21.7618-39.8967h-137.8249l-21.7618,39.8967h-25.3888ZM2149.0735,266.7511h116.0631l-58.0316-101.5552-58.0316,101.5552Z"/>
      <path class="st1" d="M2352.184,324.7826v-174.0947h22.6686l174.8881,147.2324h.2267v-147.2324h21.7618v174.0947h-22.6686l-174.8881-148.4792h-.2267v148.4792h-21.7618Z"/>
      <path d="M967.6152,476.9344c0-4.4833-.3526-8.0096-1.0579-10.5787-.7052-2.5691-2.292-4.4707-4.7604-5.7049-2.4684-1.2342-6.2968-2.0402-11.4854-2.418s-12.2914-.6423-21.3085-.7934l-42.0124-.6045c-10.3772-.1511-18.7142-.7808-25.011-1.889-6.2968-1.1082-11.0572-2.8588-14.2812-5.2516s-5.3775-5.6042-6.4605-9.6341c-1.0831-4.03-1.6246-9.0674-1.6246-15.1124,0-6.5991.743-12.0395,2.2291-16.3214,1.4861-4.2818,4.1811-7.6318,8.0851-10.0497,3.904-2.418,9.4326-4.1181,16.5858-5.1004,7.1532-.9823,16.3969-1.4735,27.7312-1.4735h32.3405c10.2764,0,18.8401.3274,25.6911.9823s12.2914,2.1661,16.3214,4.5337,6.9139,6.045,8.6518,11.032c1.7379,4.9871,2.6069,11.838,2.6069,20.5528h-14.5079c0-6.7502-.6423-11.8506-1.9268-15.3013-1.2846-3.4507-3.4003-5.8057-6.3472-7.065-2.9469-1.2594-6.9139-1.9394-11.901-2.0402s-11.1832-.1511-18.5882-.1511h-31.5849c-9.0171,0-16.2332.1763-21.6485.5289s-9.5082,1.1586-12.2788,2.418-4.6219,3.2743-5.5538,6.045-1.3979,6.5739-1.3979,11.4098c0,4.0803.3274,7.3547.9823,9.823.6549,2.4684,2.1283,4.3448,4.4204,5.6294s5.8309,2.1661,10.6164,2.6447,11.3091.7682,19.5705.869l45.0349.6045c10.5787.1511,19.029.7682,25.351,1.8513,6.322,1.0831,11.0572,2.8336,14.2056,5.2516,3.1484,2.418,5.239,5.6797,6.2716,9.7853s1.549,9.2815,1.549,15.528c0,6.8006-.6423,12.5055-1.9268,17.1148-1.2846,4.6093-3.7655,8.2992-7.4428,11.0698-3.6773,2.7706-8.9919,4.7604-15.9436,5.9694s-16.0947,1.8135-27.429,1.8135h-35.363c-10.3268,0-18.9912-.4534-25.9933-1.3601s-12.5811-2.7328-16.737-5.4782c-4.1559-2.7454-7.1406-6.8384-8.9541-12.2788s-2.7202-12.6944-2.7202-21.7618h14.5079c0,7.1028.5793,12.5937,1.7379,16.4725s3.1862,6.662,6.0827,8.3496,6.9517,2.695,12.1655,3.0225,11.8506.4912,19.9106.4912h34.6074c9.0171,0,16.1451-.2897,21.384-.869s9.1178-1.6875,11.6365-3.3247c2.5187-1.6372,4.1433-3.9922,4.8737-7.065s1.0956-7.128,1.0956-12.1655Z"/>
      <path d="M1168.5486,510.4839v-48.3596l-65.2855-67.7035h19.3439l53.1956,56.8226,53.1956-56.8226h19.3439l-65.2855,67.7035v48.3596h-14.5079Z"/>
      <path d="M1497.4839,476.9344c0-4.4833-.3526-8.0096-1.0579-10.5787-.7052-2.5691-2.292-4.4707-4.7604-5.7049-2.4684-1.2342-6.2968-2.0402-11.4854-2.418s-12.2914-.6423-21.3085-.7934l-42.0124-.6045c-10.3772-.1511-18.7142-.7808-25.011-1.889-6.2968-1.1082-11.0572-2.8588-14.2812-5.2516-3.224-2.3928-5.3775-5.6042-6.4605-9.6341-1.0831-4.03-1.6246-9.0674-1.6246-15.1124,0-6.5991.743-12.0395,2.2291-16.3214,1.4861-4.2818,4.1811-7.6318,8.0851-10.0497s9.4326-4.1181,16.5858-5.1004c7.1532-.9823,16.3969-1.4735,27.7312-1.4735h32.3405c10.2764,0,18.8401.3274,25.6911.9823s12.2914,2.1661,16.3214,4.5337c4.03,2.3676,6.9139,6.045,8.6518,11.032s2.6069,11.838,2.6069,20.5528h-14.5079c0-6.7502-.6423-11.8506-1.9268-15.3013-1.2846-3.4507-3.4003-5.8057-6.3472-7.065-2.9469-1.2594-6.9139-1.9394-11.901-2.0402s-11.1832-.1511-18.5882-.1511h-31.5849c-9.0171,0-16.2332.1763-21.6485.5289s-9.5082,1.1586-12.2788,2.418c-2.7706,1.2594-4.6219,3.2743-5.5538,6.045s-1.3979,6.5739-1.3979,11.4098c0,4.0803.3274,7.3547.9823,9.823.6549,2.4684,2.1283,4.3448,4.4204,5.6294s5.8309,2.1661,10.6164,2.6447,11.3091.7682,19.5705.869l45.0349.6045c10.5787.1511,19.029.7682,25.351,1.8513s11.0572,2.8336,14.2056,5.2516c3.1484,2.418,5.239,5.6797,6.2716,9.7853,1.0327,4.1055,1.549,9.2815,1.549,15.528,0,6.8006-.6423,12.5055-1.9268,17.1148-1.2846,4.6093-3.7655,8.2992-7.4428,11.0698s-8.9919,4.7604-15.9436,5.9694c-6.9517,1.209-16.0947,1.8135-27.429,1.8135h-35.363c-10.3268,0-18.9912-.4534-25.9933-1.3601s-12.5811-2.7328-16.737-5.4782c-4.1559-2.7454-7.1406-6.8384-8.9541-12.2788-1.8135-5.4405-2.7202-12.6944-2.7202-21.7618h14.5079c0,7.1028.5793,12.5937,1.7379,16.4725s3.1862,6.662,6.0827,8.3496c2.8965,1.6875,6.9517,2.695,12.1655,3.0225s11.8506.4912,19.9106.4912h34.6074c9.0171,0,16.1451-.2897,21.384-.869,5.239-.5793,9.1178-1.6875,11.6365-3.3247s4.1433-3.9922,4.8737-7.065,1.0956-7.128,1.0956-12.1655Z"/>
      <path d="M1698.4173,510.4839v-103.9732h-58.0316v-12.0899h130.571v12.0899h-58.0316v103.9732h-14.5079Z"/>
      <path d="M1912.574,510.4839v-116.0631h113.9474v12.0899h-99.4395v38.6877h95.2836v12.0899h-95.2836v41.1057h101.5552v12.0899h-116.0631Z"/>
      <path d="M2144.2611,510.4839v-116.0631h21.6107l70.197,94.6791,69.1392-94.6791h21.6107v116.0631h-14.5079v-102.9153l-69.2903,95.2836h-13.1478l-71.1038-95.2836v102.9153h-14.5079Z"/>
      <path d="M2557.2212,476.9344c0-4.4833-.3526-8.0096-1.0579-10.5787-.7052-2.5691-2.292-4.4707-4.7604-5.7049s-6.2968-2.0402-11.4854-2.418-12.2914-.6423-21.3085-.7934l-42.0124-.6045c-10.3772-.1511-18.7142-.7808-25.011-1.889-6.2968-1.1082-11.0572-2.8588-14.2812-5.2516-3.224-2.3928-5.3775-5.6042-6.4605-9.6341s-1.6246-9.0674-1.6246-15.1124c0-6.5991.743-12.0395,2.2291-16.3214,1.4861-4.2818,4.1811-7.6318,8.0851-10.0497s9.4326-4.1181,16.5858-5.1004,16.3969-1.4735,27.7312-1.4735h32.3405c10.2764,0,18.8401.3274,25.6911.9823s12.2914,2.1661,16.3214,4.5337c4.03,2.3676,6.9139,6.045,8.6518,11.032,1.7379,4.9871,2.6069,11.838,2.6069,20.5528h-14.5079c0-6.7502-.6423-11.8506-1.9268-15.3013-1.2846-3.4507-3.4003-5.8057-6.3472-7.065-2.9469-1.2594-6.9139-1.9394-11.901-2.0402-4.9871-.1007-11.1832-.1511-18.5882-.1511h-31.5849c-9.0171,0-16.2332.1763-21.6485.5289s-9.5082,1.1586-12.2788,2.418c-2.7706,1.2594-4.6219,3.2743-5.5538,6.045s-1.3979,6.5739-1.3979,11.4098c0,4.0803.3274,7.3547.9823,9.823.6549,2.4684,2.1283,4.3448,4.4204,5.6294s5.8309,2.1661,10.6164,2.6447c4.7856.4786,11.3091.7682,19.5705.869l45.0349.6045c10.5787.1511,19.029.7682,25.351,1.8513,6.322,1.0831,11.0572,2.8336,14.2056,5.2516,3.1484,2.418,5.239,5.6797,6.2716,9.7853,1.0327,4.1055,1.549,9.2815,1.549,15.528,0,6.8006-.6423,12.5055-1.9268,17.1148-1.2846,4.6093-3.7655,8.2992-7.4428,11.0698-3.6773,2.7706-8.9919,4.7604-15.9436,5.9694-6.9517,1.209-16.0947,1.8135-27.429,1.8135h-35.363c-10.3268,0-18.9912-.4534-25.9933-1.3601-7.0021-.9067-12.5811-2.7328-16.737-5.4782s-7.1406-6.8384-8.9541-12.2788c-1.8135-5.4405-2.7202-12.6944-2.7202-21.7618h14.5079c0,7.1028.5793,12.5937,1.7379,16.4725,1.1586,3.8788,3.1862,6.662,6.0827,8.3496,2.8965,1.6875,6.9517,2.695,12.1655,3.0225s11.8506.4912,19.9106.4912h34.6074c9.0171,0,16.1451-.2897,21.384-.869,5.239-.5793,9.1178-1.6875,11.6365-3.3247s4.1433-3.9922,4.8737-7.065,1.0956-7.128,1.0956-12.1655Z"/>
    </g>
    <g>
      <path class="st1" d="M720,210.2299h155.6038v43.7624h-109.7558v55.5738h107.6716v43.7638h-107.6716v100.03h-45.848v-243.13Z"/>
      <path class="st1" d="M930.4809,210.2299h45.848v199.3662h110.4509v43.7638h-156.299v-243.13Z"/>
      <path class="st1" d="M1143.0475,210.2299h153.5196v43.7624h-107.6716v55.5738h103.5046v43.7638h-103.5046v56.2662h111.8399v43.7638h-157.688v-243.13Z"/>
      <path class="st1" d="M1355.6126,210.2299h153.5196v43.7624h-107.6716v55.5738h103.5046v43.7638h-103.5046v56.2662h111.8399v43.7638h-157.688v-243.13Z"/>
      <path class="st1" d="M1558.4548,210.2299h175.0539v43.7624h-64.6029v199.3676h-45.848v-199.3676h-64.6029v-43.7624Z"/>
    </g>
    <polygon class="st1" points="228.4 195.025 254.7098 240.61 517.915 240.61 359.9949 514.15 281.0349 377.38 333.67 377.38 359.9949 422.965 438.955 286.2099 281.0349 286.2099 307.345 331.795 254.7098 331.795 149.4399 149.4399 570.5499 149.4399 544.2399 195.025 228.4 195.025"/>
  </g>
</svg>
