<svg xmlns="http://www.w3.org/2000/svg" viewBox="0 0 360 180" fill="none">
  <g stroke="currentColor" stroke-width="1.25" fill="none" stroke-linecap="square" stroke-linejoin="miter">

    

    
    <line x1="10" y1="160" x2="350" y2="160"></line>

    
    <path d="&#xA;      M 26 156&#xA;      L 26 140&#xA;      L 28 128&#xA;      L 46 118&#xA;      L 56 114&#xA;      L 58 106&#xA;      L 68 60&#xA;      L 84 32&#xA;      L 316 32&#xA;      L 326 40&#xA;      L 332 54&#xA;      L 334 138&#xA;      L 340 138&#xA;      L 340 156&#xA;      Z&#xA;    "></path>

    
    <line x1="92" y1="36" x2="314" y2="36"></line>

    
    <line x1="70" y1="112" x2="332" y2="112"></line>

    
    <line x1="40" y1="148" x2="332" y2="148"></line>

    
    
    <path d="M 68 60 L 84 36 L 108 36 L 108 64 L 78 64 Z"></path>

    
    <line x1="108" y1="36" x2="108" y2="64"></line>

    
    <path d="M 112 40 L 152 40 L 152 64 L 112 64 Z"></path>

    
    <path d="M 106 66 L 100 66 L 100 76 L 106 76"></path>

    
    <line x1="154" y1="36" x2="154" y2="148"></line>

    
    <rect x="138" y="100" width="12" height="3"></rect>

    
    <path d="M 50 148 Q 50 122 76 122 Q 102 122 102 148"></path>

    
    <line x1="156" y1="36" x2="156" y2="148"></line>
    <line x1="240" y1="36" x2="240" y2="148"></line>
    
    <line x1="158" y1="42" x2="238" y2="42"></line>
    
    <rect x="226" y="100" width="12" height="3"></rect>

    
    <line x1="296" y1="36" x2="296" y2="138"></line>
    <rect x="304" y="100" width="10" height="3"></rect>

    
    <path d="M 250 148 Q 250 122 276 122 Q 302 122 302 148"></path>

    
    <circle cx="76" cy="148" r="12"></circle>
    <circle cx="76" cy="148" r="5"></circle>
    <circle cx="276" cy="148" r="12"></circle>
    <circle cx="276" cy="148" r="5"></circle>

    
    
    <path d="M 30 106 L 56 104 L 58 116 L 30 118 Z"></path>
    
    <path d="M 34 122 L 60 122 L 60 138 L 30 138 Z"></path>
    <line x1="34" y1="128" x2="60" y2="128"></line>
    <line x1="32" y1="134" x2="60" y2="134"></line>
    
    <line x1="26" y1="152" x2="60" y2="152"></line>
    <line x1="26" y1="156" x2="62" y2="156"></line>

    
    
    <rect x="322" y="104" width="12" height="34"></rect>
    <line x1="322" y1="116" x2="334" y2="116"></line>
    <line x1="322" y1="126" x2="334" y2="126"></line>
    
    <line x1="334" y1="156" x2="340" y2="156"></line>

    
    
    <rect x="146" y="22" width="142" height="10"></rect>
    <line x1="182" y1="22" x2="182" y2="32"></line>
    <line x1="217" y1="22" x2="217" y2="32"></line>
    <line x1="252" y1="22" x2="252" y2="32"></line>
    
    <rect x="96" y="26" width="18" height="6"></rect>
    
    <line x1="217" y1="22" x2="217" y2="10"></line>
    <circle cx="217" cy="8" r="2" fill="currentColor"></circle>

  </g>

  <g font-family="&#39;IBM Plex Mono&#39;, monospace" font-size="8" letter-spacing="0.15em" fill="currentColor" fill-opacity="0.6">
    <text x="223" y="8">ARRAY · 400W</text>
  </g>

  <g font-family="&#39;IBM Plex Mono&#39;, monospace" font-size="7" letter-spacing="0.18em" fill="currentColor" fill-opacity="0.45">
    <text x="14" y="176">FORD TRANSIT · 148&#34; EL · HIGH ROOF</text>
    <text x="272" y="176">SCALE 1:24</text>
  </g>
</svg>