<?xml version="1.0" encoding="UTF-8"?>
<svg id="Driver" xmlns="http://www.w3.org/2000/svg" viewBox="85 458 711 390">
  <g id="Wheel">
    <path fill="currentColor" d="M584.3711,799.8893c0,21.8929,17.7478,39.6407,39.6406,39.6407,21.8929,0,39.6406-17.7477,39.6406-39.6407s-17.7477-39.6406-39.6406-39.6406c-21.8928,0-39.6406,17.7477-39.6406,39.6406ZM597.2414,799.8893c0-14.7848,11.9855-26.7703,26.7703-26.7703s26.7703,11.9855,26.7703,26.7703-11.9854,26.7703-26.7703,26.7703-26.7703-11.9855-26.7703-26.7703Z"/>
    <circle cx="624.0117" cy="799.8894" r="23.6814" style="fill: none; stroke: currentColor; stroke-miterlimit: 10; stroke-width: 2px;"/>
    <circle cx="624.0117" cy="799.8894" r="11.3259" style="fill: none; stroke: currentColor; stroke-miterlimit: 10; stroke-width: 2px;"/>
    <circle fill="currentColor" cx="624.0117" cy="799.8894" r="5.1481"/>
  </g>
  <g id="Wheel-2" data-name="Wheel">
    <path fill="currentColor" d="M167.372,799.8893c0,21.8929,17.7478,39.6407,39.6406,39.6407,21.8929,0,39.6406-17.7477,39.6406-39.6407s-17.7477-39.6406-39.6406-39.6406c-21.8928,0-39.6406,17.7477-39.6406,39.6406ZM180.2424,799.8893c0-14.7848,11.9855-26.7703,26.7703-26.7703s26.7703,11.9855,26.7703,26.7703-11.9854,26.7703-26.7703,26.7703-26.7703-11.9855-26.7703-26.7703Z"/>
    <circle cx="207.0127" cy="799.8894" r="23.6814" style="fill: none; stroke: currentColor; stroke-miterlimit: 10; stroke-width: 2px;"/>
    <circle cx="207.0127" cy="799.8894" r="11.3259" style="fill: none; stroke: currentColor; stroke-miterlimit: 10; stroke-width: 2px;"/>
    <circle fill="currentColor" cx="207.0127" cy="799.8894" r="5.1481"/>
  </g>
  <g>
    <path d="M515.9009,806.0671v-249.6846s-111.7146,0-111.7146,0c0,0-15.4444,1.0296-29.3444,4.6333-13.9,3.6037-25.2259,8.237-25.2259,8.237v236.8143" style="fill: none; stroke: currentColor; stroke-miterlimit: 10; stroke-width: 2px;"/>
    <path d="M349.6161,608.3787s-45.2829,2.6158-50.4517,5.1481c-2.2827,1.1183-17.5037,8.237-17.5037,8.237l-63.3221,56.1147v31.4036s3.0889,25.2259,4.1185,28.3147,3.0176,15.638,3.0176,15.638" style="fill: none; stroke: currentColor; stroke-miterlimit: 10; stroke-width: 2px;"/>
    <polyline points="738.8168 684.3725 725.9448 684.5711 721.8263 689.2044 721.8263 753.2349 726.9744 757.6746 739.8448 757.6746 739.8448 750.9821" style="fill: none; stroke: currentColor; stroke-miterlimit: 10; stroke-width: 2px;"/>
    <rect x="357.8531" y="702.56" width="29.8592" height="6.1778" transform="translate(745.5653 1411.2977) rotate(-180)" style="fill: none; stroke: currentColor; stroke-miterlimit: 10; stroke-width: 2px;"/>
    <rect x="312.0347" y="705.6488" width="29.8592" height="6.1778" transform="translate(653.9285 1417.4754) rotate(-180)" style="fill: none; stroke: currentColor; stroke-miterlimit: 10; stroke-width: 2px;"/>
    <path d="M175.6091,698.4711l-49.9369,13.3555s-3.6037,1.0593-5.6629,5.1778-2.5741,16.474-2.5741,16.474l36.037-3.0889,7.7222-14.4148,14.4148-17.5037Z" style="fill: none; stroke: currentColor; stroke-miterlimit: 10; stroke-width: 2px;"/>
    <path d="M721.8263,753.2349h-63.8369s-12.8703-11.0047-35.1258-11.0343c-25.6267-.0341-38.4925,15.474-38.4925,15.474l-335.6585,2.5741s-11.3259-20.6222-39.6999-20.6222c-25.6814,0-37.5221,13.6084-37.5221,13.6084l-68.4702,4.9545" style="fill: none; stroke: currentColor; stroke-miterlimit: 10; stroke-width: 2px;"/>
    <polyline points="366.0901 642.8712 364.0308 680.8068 369.6938 688.1748 663.6523 684.3725 699.1745 665.523 699.1745 642.8712" style="fill: none; stroke: currentColor; stroke-miterlimit: 10; stroke-width: 2px;"/>
    <line x1="515.9009" y1="556.3825" x2="707.4115" y2="556.3825" style="fill: none; stroke: currentColor; stroke-miterlimit: 10; stroke-width: 2px;"/>
    <path d="M265.7014,612.4972l8.7518,4.6333-72.5887,60.748s-7.7222,5.2657-10.8111,6.4939-8.7518,2.2579-8.7518,2.2579" style="fill: none; stroke: currentColor; stroke-miterlimit: 10; stroke-width: 2px;"/>
    <path d="M238.9311,726.271s37.0666-2.7727,128.7034-5.2475c91.6368-2.4747,348.5288-9.197,348.5288-9.197" style="fill: none; stroke: currentColor; stroke-miterlimit: 10; stroke-width: 2px;"/>
    <path d="M218.3386,677.8785l-28.8296,29.9184,6.1778,2.0296,22.6518-.5444,21.1074.5148s24.1962-4.1185,52.511-10.8111c28.3147-6.6926,38.0962-14.6134,38.0962-14.6134l7.2074-67.2419-30.374,2.5741s-5.658-.8917-20.5925,5.1481-28.375,17.9505-28.375,17.9505" style="fill: none; stroke: currentColor; stroke-miterlimit: 10; stroke-width: 2px;"/>
    <path d="M714.6189,589.2162s0-9.6671-1.5444-10.1819-7.7222,0-7.7222,0l-317.64,1s-29.8592.8078-58.1739,5.6926c-15.4045,2.6575-23.1666,13.9-23.1666,13.9,0,0,14.3878-5.9825,24.7111-6.6926,54.0554-3.7181,91.122-3.7181,91.122-3.7181h283.1475" style="fill: none; stroke: currentColor; stroke-miterlimit: 10; stroke-width: 2px;"/>
    <rect x="253.8607" y="811.2153" width="322.7881" height="9.2666" transform="translate(830.5096 1631.6972) rotate(-180)" style="fill: none; stroke: currentColor; stroke-miterlimit: 10; stroke-width: 2px;"/>
    <rect x="739.8448" y="804.2153" width="47.6203" height="9.2666" transform="translate(1527.3098 1617.6972) rotate(-180)" style="fill: none; stroke: currentColor; stroke-miterlimit: 10; stroke-width: 2px;"/>
    <rect x="306.3717" y="519.0585" width="433.4731" height="18.5333" transform="translate(1046.2165 1056.6504) rotate(-180)" style="fill: none; stroke: currentColor; stroke-miterlimit: 10; stroke-width: 2px;"/>
    <rect x="515.9009" y="692.8081" width="165.2552" height="5.6629" transform="translate(1197.0569 1391.2792) rotate(-180)" style="fill: none; stroke: currentColor; stroke-miterlimit: 10; stroke-width: 2px;"/>
    <path d="M403.6715,542.9974h310.9474s24.1962-4.6333,22.6518,41.1851l2.5741,166.7996h11.3259v5.6629s5.1481,0,5.1481,0v9.7815h-6.6926s.5148,23.1666.5148,23.1666h6.1778v9.7815s-81.8554,3.0889-81.8554,3.0889c0,0,1.9549-51.407-51.4814-50.4517-53.542.9572-46.848,54.0554-46.848,54.0554H253.8607s2.0593-55.5999-44.7888-55.5999c-46.848,0-48.9073,55.5999-48.9073,55.5999h-44.274s-9.2666-3.0889-14.4148-6.1778-6.1778-5.6629-6.1778-5.6629l2.5741-12.3555-5.1481-2.5741v-13.3852s10.2963-7.7222,10.2963-7.7222l4.6333-39.6406s1.0296-10.2963,15.9592-15.4444c14.9296-5.1481,43.2443-14.9296,43.2443-14.9296l15.4444-1.5444,83.3998-74.1332s54.5778-47.3832,71.5591-54.0554c39.6406-15.5755,66.411-15.4444,66.411-15.4444Z" style="fill: none; stroke: currentColor; stroke-miterlimit: 10; stroke-width: 2px;"/>
  </g>
</svg>